# xmcd CD database file
# Generated: Fri Mar 19 21:10:32 2004 by KSCD
# 
# Track frame offsets:
#       150
#       19565
#       40839
#       59535
#       78762
#       103053
#       124341
#       147729
#       169851
#       187855
#       206551
#       226089
#       257764
#       277001
#       300330
#       316404
#
# Disc length: 4442 seconds
#
# Revision: 2
# Processed by: cddbd v1.5PL3 Copyright (c) Steve Scherf et al.
# Submitted via: Kscd 1.3.3
#
DISCID=da115810
DTITLE=john mayall - ?
DYEAR=1900
DGENRE=
TTITLE0=?
TTITLE1=
TTITLE2=
TTITLE3=
TTITLE4=
TTITLE5=
TTITLE6=
TTITLE7=
TTITLE8=
TTITLE9=
TTITLE10=
TTITLE11=
TTITLE12=
TTITLE13=
TTITLE14=
TTITLE15=
EXTD=
EXTT0=
EXTT1=
EXTT2=
EXTT3=
EXTT4=
EXTT5=
EXTT6=
EXTT7=
EXTT8=
EXTT9=
EXTT10=
EXTT11=
EXTT12=
EXTT13=
EXTT14=
EXTT15=
PLAYORDER=
